<svg xmlns="http://www.w3.org/2000/svg" width="442" height="400" viewBox="0 0 442 400">
<rect width="100%" height="100%" fill="rgb(255, 255, 255)"/>
<polygon points="220.65,181.77 236.24,190.77 236.24,208.77 220.65,217.77 205.06,208.77 205.06,190.77" fill="rgb(255, 255, 255)"/>
<polygon points="251.83,181.77 267.42,190.77 267.42,208.77 251.83,217.77 236.24,208.77 236.24,190.77" fill="rgb(17, 17, 17)"/>
<polygon points="236.24,154.77 251.83,163.77 251.83,181.77 236.24,190.77 220.65,181.77 220.65,163.77" fill="rgb(17, 17, 17)"/>
<polygon points="205.06,154.77 220.65,163.77 220.65,181.77 205.06,190.77 189.47,181.77 189.47,163.77" fill="rgb(17, 17, 17)"/>
<polygon points="189.47,181.77 205.06,190.77 205.06,208.77 189.47,217.77 173.88,208.77 173.88,190.77" fill="rgb(17, 17, 17)"/>
<polygon points="205.06,208.77 220.65,217.77 220.65,235.77 205.06,244.77 189.47,235.77 189.47,217.77" fill="rgb(17, 17, 17)"/>
<polygon points="236.24,208.77 251.83,217.77 251.83,235.77 236.24,244.77 220.65,235.77 220.65,217.77" fill="rgb(17, 17, 17)"/>
<polygon points="283.00,181.77 298.59,190.77 298.59,208.77 283.00,217.77 267.42,208.77 267.42,190.77" fill="rgb(255, 255, 255)"/>
<polygon points="267.42,154.77 283.00,163.77 283.00,181.77 267.42,190.77 251.83,181.77 251.83,163.77" fill="rgb(17, 17, 17)"/>
<polygon points="251.83,127.77 267.42,136.77 267.42,154.77 251.83,163.77 236.24,154.77 236.24,136.77" fill="rgb(255, 255, 255)"/>
<polygon points="220.65,127.77 236.24,136.77 236.24,154.77 220.65,163.77 205.06,154.77 205.06,136.77" fill="rgb(17, 17, 17)"/>
<polygon points="189.47,127.77 205.06,136.77 205.06,154.77 189.47,163.77 173.88,154.77 173.88,136.77" fill="rgb(255, 255, 255)"/>
<polygon points="173.88,154.77 189.47,163.77 189.47,181.77 173.88,190.77 158.30,181.77 158.30,163.77" fill="rgb(255, 255, 255)"/>
<polygon points="158.30,181.77 173.88,190.77 173.88,208.77 158.30,217.77 142.71,208.77 142.71,190.77" fill="rgb(255, 255, 255)"/>
<polygon points="173.88,208.77 189.47,217.77 189.47,235.77 173.88,244.77 158.30,235.77 158.30,217.77" fill="rgb(255, 255, 255)"/>
<polygon points="189.47,235.77 205.06,244.77 205.06,262.77 189.47,271.77 173.88,262.77 173.88,244.77" fill="rgb(255, 255, 255)"/>
<polygon points="220.65,235.77 236.24,244.77 236.24,262.77 220.65,271.77 205.06,262.77 205.06,244.77" fill="rgb(17, 17, 17)"/>
<polygon points="251.83,235.77 267.42,244.77 267.42,262.77 251.83,271.77 236.24,262.77 236.24,244.77" fill="rgb(255, 255, 255)"/>
<polygon points="267.42,208.77 283.00,217.77 283.00,235.77 267.42,244.77 251.83,235.77 251.83,217.77" fill="rgb(255, 255, 255)"/>
<polygon points="314.18,181.77 329.77,190.77 329.77,208.77 314.18,217.77 298.59,208.77 298.59,190.77" fill="rgb(255, 255, 255)"/>
<polygon points="298.59,154.77 314.18,163.77 314.18,181.77 298.59,190.77 283.00,181.77 283.00,163.77" fill="rgb(17, 17, 17)"/>
<polygon points="283.00,127.77 298.59,136.77 298.59,154.77 283.00,163.77 267.42,154.77 267.42,136.77" fill="rgb(17, 17, 17)"/>
<polygon points="267.42,100.77 283.00,109.77 283.00,127.77 267.42,136.77 251.83,127.77 251.83,109.77" fill="rgb(17, 17, 17)"/>
<polygon points="236.24,100.77 251.83,109.77 251.83,127.77 236.24,136.77 220.65,127.77 220.65,109.77" fill="rgb(17, 17, 17)"/>
<polygon points="205.06,100.77 220.65,109.77 220.65,127.77 205.06,136.77 189.47,127.77 189.47,109.77" fill="rgb(17, 17, 17)"/>
<polygon points="173.88,100.77 189.47,109.77 189.47,127.77 173.88,136.77 158.30,127.77 158.30,109.77" fill="rgb(17, 17, 17)"/>
<polygon points="158.30,127.77 173.88,136.77 173.88,154.77 158.30,163.77 142.71,154.77 142.71,136.77" fill="rgb(17, 17, 17)"/>
<polygon points="142.71,154.77 158.30,163.77 158.30,181.77 142.71,190.77 127.12,181.77 127.12,163.77" fill="rgb(255, 255, 255)"/>
<polygon points="127.12,181.77 142.71,190.77 142.71,208.77 127.12,217.77 111.53,208.77 111.53,190.77" fill="rgb(255, 255, 255)"/>
<polygon points="142.71,208.77 158.30,217.77 158.30,235.77 142.71,244.77 127.12,235.77 127.12,217.77" fill="rgb(17, 17, 17)"/>
<polygon points="158.30,235.77 173.88,244.77 173.88,262.77 158.30,271.77 142.71,262.77 142.71,244.77" fill="rgb(255, 255, 255)"/>
<polygon points="173.88,262.77 189.47,271.77 189.47,289.77 173.88,298.77 158.30,289.77 158.30,271.77" fill="rgb(255, 255, 255)"/>
<polygon points="205.06,262.77 220.65,271.77 220.65,289.77 205.06,298.77 189.47,289.77 189.47,271.77" fill="rgb(255, 255, 255)"/>
<polygon points="236.24,262.77 251.83,271.77 251.83,289.77 236.24,298.77 220.65,289.77 220.65,271.77" fill="rgb(255, 255, 255)"/>
<polygon points="267.42,262.77 283.00,271.77 283.00,289.77 267.42,298.77 251.83,289.77 251.83,271.77" fill="rgb(17, 17, 17)"/>
<polygon points="283.00,235.77 298.59,244.77 298.59,262.77 283.00,271.77 267.42,262.77 267.42,244.77" fill="rgb(255, 255, 255)"/>
<polygon points="298.59,208.77 314.18,217.77 314.18,235.77 298.59,244.77 283.00,235.77 283.00,217.77" fill="rgb(255, 255, 255)"/>
<polygon points="345.36,181.77 360.95,190.77 360.95,208.77 345.36,217.77 329.77,208.77 329.77,190.77" fill="rgb(255, 255, 255)"/>
<polygon points="329.77,154.77 345.36,163.77 345.36,181.77 329.77,190.77 314.18,181.77 314.18,163.77" fill="rgb(255, 255, 255)"/>
<polygon points="314.18,127.77 329.77,136.77 329.77,154.77 314.18,163.77 298.59,154.77 298.59,136.77" fill="rgb(255, 255, 255)"/>
<polygon points="298.59,100.77 314.18,109.77 314.18,127.77 298.59,136.77 283.00,127.77 283.00,109.77" fill="rgb(17, 17, 17)"/>
<polygon points="283.00,73.77 298.59,82.77 298.59,100.77 283.00,109.77 267.42,100.77 267.42,82.77" fill="rgb(17, 17, 17)"/>
<polygon points="251.83,73.77 267.42,82.77 267.42,100.77 251.83,109.77 236.24,100.77 236.24,82.77" fill="rgb(255, 255, 255)"/>
<polygon points="220.65,73.77 236.24,82.77 236.24,100.77 220.65,109.77 205.06,100.77 205.06,82.77" fill="rgb(255, 255, 255)"/>
<polygon points="189.47,73.77 205.06,82.77 205.06,100.77 189.47,109.77 173.88,100.77 173.88,82.77" fill="rgb(17, 17, 17)"/>
<polygon points="158.30,73.77 173.88,82.77 173.88,100.77 158.30,109.77 142.71,100.77 142.71,82.77" fill="rgb(255, 255, 255)"/>
<polygon points="142.71,100.77 158.30,109.77 158.30,127.77 142.71,136.77 127.12,127.77 127.12,109.77" fill="rgb(255, 255, 255)"/>
<polygon points="127.12,127.77 142.71,136.77 142.71,154.77 127.12,163.77 111.53,154.77 111.53,136.77" fill="rgb(17, 17, 17)"/>
<polygon points="111.53,154.77 127.12,163.77 127.12,181.77 111.53,190.77 95.94,181.77 95.94,163.77" fill="rgb(255, 255, 255)"/>
<polygon points="95.94,181.77 111.53,190.77 111.53,208.77 95.94,217.77 80.35,208.77 80.35,190.77" fill="rgb(255, 255, 255)"/>
<polygon points="111.53,208.77 127.12,217.77 127.12,235.77 111.53,244.77 95.94,235.77 95.94,217.77" fill="rgb(17, 17, 17)"/>
<polygon points="127.12,235.77 142.71,244.77 142.71,262.77 127.12,271.77 111.53,262.77 111.53,244.77" fill="rgb(17, 17, 17)"/>
<polygon points="142.71,262.77 158.30,271.77 158.30,289.77 142.71,298.77 127.12,289.77 127.12,271.77" fill="rgb(255, 255, 255)"/>
<polygon points="158.30,289.77 173.88,298.77 173.88,316.77 158.30,325.77 142.71,316.77 142.71,298.77" fill="rgb(255, 255, 255)"/>
<polygon points="189.47,289.77 205.06,298.77 205.06,316.77 189.47,325.77 173.88,316.77 173.88,298.77" fill="rgb(17, 17, 17)"/>
<polygon points="220.65,289.77 236.24,298.77 236.24,316.77 220.65,325.77 205.06,316.77 205.06,298.77" fill="rgb(17, 17, 17)"/>
<polygon points="251.83,289.77 267.42,298.77 267.42,316.77 251.83,325.77 236.24,316.77 236.24,298.77" fill="rgb(17, 17, 17)"/>
<polygon points="283.00,289.77 298.59,298.77 298.59,316.77 283.00,325.77 267.42,316.77 267.42,298.77" fill="rgb(17, 17, 17)"/>
<polygon points="298.59,262.77 314.18,271.77 314.18,289.77 298.59,298.77 283.00,289.77 283.00,271.77" fill="rgb(255, 255, 255)"/>
<polygon points="314.18,235.77 329.77,244.77 329.77,262.77 314.18,271.77 298.59,262.77 298.59,244.77" fill="rgb(17, 17, 17)"/>
<polygon points="329.77,208.77 345.36,217.77 345.36,235.77 329.77,244.77 314.18,235.77 314.18,217.77" fill="rgb(17, 17, 17)"/>
<polygon points="376.53,181.77 392.12,190.77 392.12,208.77 376.53,217.77 360.95,208.77 360.95,190.77" fill="rgb(255, 255, 255)"/>
<polygon points="360.95,154.77 376.53,163.77 376.53,181.77 360.95,190.77 345.36,181.77 345.36,163.77" fill="rgb(255, 255, 255)"/>
<polygon points="345.36,127.77 360.95,136.77 360.95,154.77 345.36,163.77 329.77,154.77 329.77,136.77" fill="rgb(17, 17, 17)"/>
<polygon points="329.77,100.77 345.36,109.77 345.36,127.77 329.77,136.77 314.18,127.77 314.18,109.77" fill="rgb(17, 17, 17)"/>
<polygon points="314.18,73.77 329.77,82.77 329.77,100.77 314.18,109.77 298.59,100.77 298.59,82.77" fill="rgb(255, 255, 255)"/>
<polygon points="298.59,46.77 314.18,55.77 314.18,73.77 298.59,82.77 283.00,73.77 283.00,55.77" fill="rgb(255, 255, 255)"/>
<polygon points="267.42,46.77 283.00,55.77 283.00,73.77 267.42,82.77 251.83,73.77 251.83,55.77" fill="rgb(255, 255, 255)"/>
<polygon points="236.24,46.77 251.83,55.77 251.83,73.77 236.24,82.77 220.65,73.77 220.65,55.77" fill="rgb(17, 17, 17)"/>
<polygon points="205.06,46.77 220.65,55.77 220.65,73.77 205.06,82.77 189.47,73.77 189.47,55.77" fill="rgb(255, 255, 255)"/>
<polygon points="173.88,46.77 189.47,55.77 189.47,73.77 173.88,82.77 158.30,73.77 158.30,55.77" fill="rgb(17, 17, 17)"/>
<polygon points="142.71,46.77 158.30,55.77 158.30,73.77 142.71,82.77 127.12,73.77 127.12,55.77" fill="rgb(255, 255, 255)"/>
<polygon points="127.12,73.77 142.71,82.77 142.71,100.77 127.12,109.77 111.53,100.77 111.53,82.77" fill="rgb(17, 17, 17)"/>
<polygon points="111.53,100.77 127.12,109.77 127.12,127.77 111.53,136.77 95.94,127.77 95.94,109.77" fill="rgb(255, 255, 255)"/>
<polygon points="95.94,127.77 111.53,136.77 111.53,154.77 95.94,163.77 80.35,154.77 80.35,136.77" fill="rgb(255, 255, 255)"/>
<polygon points="80.35,154.77 95.94,163.77 95.94,181.77 80.35,190.77 64.77,181.77 64.77,163.77" fill="rgb(17, 17, 17)"/>
<polygon points="64.77,181.77 80.35,190.77 80.35,208.77 64.77,217.77 49.18,208.77 49.18,190.77" fill="rgb(255, 255, 255)"/>
<polygon points="80.35,208.77 95.94,217.77 95.94,235.77 80.35,244.77 64.77,235.77 64.77,217.77" fill="rgb(255, 255, 255)"/>
<polygon points="95.94,235.77 111.53,244.77 111.53,262.77 95.94,271.77 80.35,262.77 80.35,244.77" fill="rgb(17, 17, 17)"/>
<polygon points="111.53,262.77 127.12,271.77 127.12,289.77 111.53,298.77 95.94,289.77 95.94,271.77" fill="rgb(255, 255, 255)"/>
<polygon points="127.12,289.77 142.71,298.77 142.71,316.77 127.12,325.77 111.53,316.77 111.53,298.77" fill="rgb(17, 17, 17)"/>
<polygon points="142.71,316.77 158.30,325.77 158.30,343.77 142.71,352.77 127.12,343.77 127.12,325.77" fill="rgb(17, 17, 17)"/>
<polygon points="173.88,316.77 189.47,325.77 189.47,343.77 173.88,352.77 158.30,343.77 158.30,325.77" fill="rgb(255, 255, 255)"/>
<polygon points="205.06,316.77 220.65,325.77 220.65,343.77 205.06,352.77 189.47,343.77 189.47,325.77" fill="rgb(17, 17, 17)"/>
<polygon points="236.24,316.77 251.83,325.77 251.83,343.77 236.24,352.77 220.65,343.77 220.65,325.77" fill="rgb(255, 255, 255)"/>
<polygon points="267.42,316.77 283.00,325.77 283.00,343.77 267.42,352.77 251.83,343.77 251.83,325.77" fill="rgb(255, 255, 255)"/>
<polygon points="298.59,316.77 314.18,325.77 314.18,343.77 298.59,352.77 283.00,343.77 283.00,325.77" fill="rgb(255, 255, 255)"/>
<polygon points="314.18,289.77 329.77,298.77 329.77,316.77 314.18,325.77 298.59,316.77 298.59,298.77" fill="rgb(17, 17, 17)"/>
<polygon points="329.77,262.77 345.36,271.77 345.36,289.77 329.77,298.77 314.18,289.77 314.18,271.77" fill="rgb(255, 255, 255)"/>
<polygon points="345.36,235.77 360.95,244.77 360.95,262.77 345.36,271.77 329.77,262.77 329.77,244.77" fill="rgb(255, 255, 255)"/>
<polygon points="360.95,208.77 376.53,217.77 376.53,235.77 360.95,244.77 345.36,235.77 345.36,217.77" fill="rgb(17, 17, 17)"/>
<line x1="251.83" y1="181.77" x2="267.42" y2="190.77" stroke="rgb(255, 255, 255)" stroke-width="1.08" stroke-linecap="round"/>
<line x1="251.83" y1="163.77" x2="251.83" y2="181.77" stroke="rgb(255, 255, 255)" stroke-width="1.08" stroke-linecap="round"/>
<line x1="251.83" y1="181.77" x2="236.24" y2="190.77" stroke="rgb(255, 255, 255)" stroke-width="1.08" stroke-linecap="round"/>
<line x1="205.06" y1="154.77" x2="220.65" y2="163.77" stroke="rgb(255, 255, 255)" stroke-width="1.08" stroke-linecap="round"/>
<line x1="220.65" y1="163.77" x2="220.65" y2="181.77" stroke="rgb(255, 255, 255)" stroke-width="1.08" stroke-linecap="round"/>
<line x1="189.47" y1="181.77" x2="205.06" y2="190.77" stroke="rgb(255, 255, 255)" stroke-width="1.08" stroke-linecap="round"/>
<line x1="205.06" y1="208.77" x2="189.47" y2="217.77" stroke="rgb(255, 255, 255)" stroke-width="1.08" stroke-linecap="round"/>
<line x1="220.65" y1="217.77" x2="220.65" y2="235.77" stroke="rgb(255, 255, 255)" stroke-width="1.08" stroke-linecap="round"/>
<line x1="220.65" y1="235.77" x2="205.06" y2="244.77" stroke="rgb(255, 255, 255)" stroke-width="1.08" stroke-linecap="round"/>
<line x1="236.24" y1="208.77" x2="251.83" y2="217.77" stroke="rgb(255, 255, 255)" stroke-width="1.08" stroke-linecap="round"/>
<line x1="267.42" y1="154.77" x2="283.00" y2="163.77" stroke="rgb(255, 255, 255)" stroke-width="1.08" stroke-linecap="round"/>
<line x1="283.00" y1="163.77" x2="283.00" y2="181.77" stroke="rgb(255, 255, 255)" stroke-width="1.08" stroke-linecap="round"/>
<line x1="220.65" y1="127.77" x2="236.24" y2="136.77" stroke="rgb(255, 255, 255)" stroke-width="1.08" stroke-linecap="round"/>
<line x1="236.24" y1="154.77" x2="220.65" y2="163.77" stroke="rgb(255, 255, 255)" stroke-width="1.08" stroke-linecap="round"/>
<line x1="220.65" y1="235.77" x2="236.24" y2="244.77" stroke="rgb(255, 255, 255)" stroke-width="1.08" stroke-linecap="round"/>
<line x1="283.00" y1="127.77" x2="298.59" y2="136.77" stroke="rgb(255, 255, 255)" stroke-width="1.08" stroke-linecap="round"/>
<line x1="298.59" y1="154.77" x2="283.00" y2="163.77" stroke="rgb(255, 255, 255)" stroke-width="1.08" stroke-linecap="round"/>
<line x1="267.42" y1="100.77" x2="283.00" y2="109.77" stroke="rgb(255, 255, 255)" stroke-width="1.08" stroke-linecap="round"/>
<line x1="283.00" y1="109.77" x2="283.00" y2="127.77" stroke="rgb(255, 255, 255)" stroke-width="1.08" stroke-linecap="round"/>
<line x1="283.00" y1="127.77" x2="267.42" y2="136.77" stroke="rgb(255, 255, 255)" stroke-width="1.08" stroke-linecap="round"/>
<line x1="251.83" y1="109.77" x2="251.83" y2="127.77" stroke="rgb(255, 255, 255)" stroke-width="1.08" stroke-linecap="round"/>
<line x1="220.65" y1="109.77" x2="220.65" y2="127.77" stroke="rgb(255, 255, 255)" stroke-width="1.08" stroke-linecap="round"/>
<line x1="220.65" y1="127.77" x2="205.06" y2="136.77" stroke="rgb(255, 255, 255)" stroke-width="1.08" stroke-linecap="round"/>
<line x1="173.88" y1="100.77" x2="189.47" y2="109.77" stroke="rgb(255, 255, 255)" stroke-width="1.08" stroke-linecap="round"/>
<line x1="189.47" y1="109.77" x2="189.47" y2="127.77" stroke="rgb(255, 255, 255)" stroke-width="1.08" stroke-linecap="round"/>
<line x1="158.30" y1="127.77" x2="173.88" y2="136.77" stroke="rgb(255, 255, 255)" stroke-width="1.08" stroke-linecap="round"/>
<line x1="283.00" y1="289.77" x2="267.42" y2="298.77" stroke="rgb(255, 255, 255)" stroke-width="1.08" stroke-linecap="round"/>
<line x1="314.18" y1="109.77" x2="314.18" y2="127.77" stroke="rgb(255, 255, 255)" stroke-width="1.08" stroke-linecap="round"/>
<line x1="298.59" y1="100.77" x2="283.00" y2="109.77" stroke="rgb(255, 255, 255)" stroke-width="1.08" stroke-linecap="round"/>
<line x1="205.06" y1="100.77" x2="189.47" y2="109.77" stroke="rgb(255, 255, 255)" stroke-width="1.08" stroke-linecap="round"/>
<line x1="142.71" y1="136.77" x2="142.71" y2="154.77" stroke="rgb(255, 255, 255)" stroke-width="1.08" stroke-linecap="round"/>
<line x1="127.12" y1="217.77" x2="127.12" y2="235.77" stroke="rgb(255, 255, 255)" stroke-width="1.08" stroke-linecap="round"/>
<line x1="127.12" y1="235.77" x2="111.53" y2="244.77" stroke="rgb(255, 255, 255)" stroke-width="1.08" stroke-linecap="round"/>
<line x1="127.12" y1="235.77" x2="142.71" y2="244.77" stroke="rgb(255, 255, 255)" stroke-width="1.08" stroke-linecap="round"/>
<line x1="205.06" y1="298.77" x2="205.06" y2="316.77" stroke="rgb(255, 255, 255)" stroke-width="1.08" stroke-linecap="round"/>
<line x1="205.06" y1="316.77" x2="189.47" y2="325.77" stroke="rgb(255, 255, 255)" stroke-width="1.08" stroke-linecap="round"/>
<line x1="236.24" y1="298.77" x2="236.24" y2="316.77" stroke="rgb(255, 255, 255)" stroke-width="1.08" stroke-linecap="round"/>
<line x1="251.83" y1="289.77" x2="267.42" y2="298.77" stroke="rgb(255, 255, 255)" stroke-width="1.08" stroke-linecap="round"/>
<line x1="267.42" y1="298.77" x2="267.42" y2="316.77" stroke="rgb(255, 255, 255)" stroke-width="1.08" stroke-linecap="round"/>
<line x1="298.59" y1="298.77" x2="298.59" y2="316.77" stroke="rgb(255, 255, 255)" stroke-width="1.08" stroke-linecap="round"/>
<line x1="314.18" y1="235.77" x2="329.77" y2="244.77" stroke="rgb(255, 255, 255)" stroke-width="1.08" stroke-linecap="round"/>
<line x1="345.36" y1="217.77" x2="345.36" y2="235.77" stroke="rgb(255, 255, 255)" stroke-width="1.08" stroke-linecap="round"/>
<line x1="345.36" y1="127.77" x2="329.77" y2="136.77" stroke="rgb(255, 255, 255)" stroke-width="1.08" stroke-linecap="round"/>
<line x1="189.47" y1="73.77" x2="173.88" y2="82.77" stroke="rgb(255, 255, 255)" stroke-width="1.08" stroke-linecap="round"/>
<line x1="95.94" y1="235.77" x2="111.53" y2="244.77" stroke="rgb(255, 255, 255)" stroke-width="1.08" stroke-linecap="round"/>
<line x1="111.53" y1="244.77" x2="111.53" y2="262.77" stroke="rgb(255, 255, 255)" stroke-width="1.08" stroke-linecap="round"/>
<line x1="142.71" y1="316.77" x2="127.12" y2="325.77" stroke="rgb(255, 255, 255)" stroke-width="1.08" stroke-linecap="round"/>
<line x1="205.06" y1="316.77" x2="220.65" y2="325.77" stroke="rgb(255, 255, 255)" stroke-width="1.08" stroke-linecap="round"/>
<line x1="220.65" y1="181.77" x2="236.24" y2="190.77" stroke="rgb(17, 17, 17)" stroke-width="1.08" stroke-linecap="round"/>
<line x1="236.24" y1="190.77" x2="236.24" y2="208.77" stroke="rgb(17, 17, 17)" stroke-width="1.08" stroke-linecap="round"/>
<line x1="236.24" y1="208.77" x2="220.65" y2="217.77" stroke="rgb(17, 17, 17)" stroke-width="1.08" stroke-linecap="round"/>
<line x1="267.42" y1="190.77" x2="267.42" y2="208.77" stroke="rgb(17, 17, 17)" stroke-width="1.08" stroke-linecap="round"/>
<line x1="267.42" y1="208.77" x2="251.83" y2="217.77" stroke="rgb(17, 17, 17)" stroke-width="1.08" stroke-linecap="round"/>
<line x1="236.24" y1="154.77" x2="251.83" y2="163.77" stroke="rgb(17, 17, 17)" stroke-width="1.08" stroke-linecap="round"/>
<line x1="220.65" y1="181.77" x2="205.06" y2="190.77" stroke="rgb(17, 17, 17)" stroke-width="1.08" stroke-linecap="round"/>
<line x1="205.06" y1="190.77" x2="205.06" y2="208.77" stroke="rgb(17, 17, 17)" stroke-width="1.08" stroke-linecap="round"/>
<line x1="205.06" y1="208.77" x2="220.65" y2="217.77" stroke="rgb(17, 17, 17)" stroke-width="1.08" stroke-linecap="round"/>
<line x1="251.83" y1="217.77" x2="251.83" y2="235.77" stroke="rgb(17, 17, 17)" stroke-width="1.08" stroke-linecap="round"/>
<line x1="251.83" y1="235.77" x2="236.24" y2="244.77" stroke="rgb(17, 17, 17)" stroke-width="1.08" stroke-linecap="round"/>
<line x1="283.00" y1="181.77" x2="298.59" y2="190.77" stroke="rgb(17, 17, 17)" stroke-width="1.08" stroke-linecap="round"/>
<line x1="298.59" y1="190.77" x2="298.59" y2="208.77" stroke="rgb(17, 17, 17)" stroke-width="1.08" stroke-linecap="round"/>
<line x1="298.59" y1="208.77" x2="283.00" y2="217.77" stroke="rgb(17, 17, 17)" stroke-width="1.08" stroke-linecap="round"/>
<line x1="283.00" y1="181.77" x2="267.42" y2="190.77" stroke="rgb(17, 17, 17)" stroke-width="1.08" stroke-linecap="round"/>
<line x1="251.83" y1="127.77" x2="267.42" y2="136.77" stroke="rgb(17, 17, 17)" stroke-width="1.08" stroke-linecap="round"/>
<line x1="267.42" y1="136.77" x2="267.42" y2="154.77" stroke="rgb(17, 17, 17)" stroke-width="1.08" stroke-linecap="round"/>
<line x1="267.42" y1="154.77" x2="251.83" y2="163.77" stroke="rgb(17, 17, 17)" stroke-width="1.08" stroke-linecap="round"/>
<line x1="236.24" y1="136.77" x2="236.24" y2="154.77" stroke="rgb(17, 17, 17)" stroke-width="1.08" stroke-linecap="round"/>
<line x1="189.47" y1="127.77" x2="205.06" y2="136.77" stroke="rgb(17, 17, 17)" stroke-width="1.08" stroke-linecap="round"/>
<line x1="205.06" y1="136.77" x2="205.06" y2="154.77" stroke="rgb(17, 17, 17)" stroke-width="1.08" stroke-linecap="round"/>
<line x1="205.06" y1="154.77" x2="189.47" y2="163.77" stroke="rgb(17, 17, 17)" stroke-width="1.08" stroke-linecap="round"/>
<line x1="173.88" y1="154.77" x2="189.47" y2="163.77" stroke="rgb(17, 17, 17)" stroke-width="1.08" stroke-linecap="round"/>
<line x1="189.47" y1="163.77" x2="189.47" y2="181.77" stroke="rgb(17, 17, 17)" stroke-width="1.08" stroke-linecap="round"/>
<line x1="189.47" y1="181.77" x2="173.88" y2="190.77" stroke="rgb(17, 17, 17)" stroke-width="1.08" stroke-linecap="round"/>
<line x1="158.30" y1="181.77" x2="173.88" y2="190.77" stroke="rgb(17, 17, 17)" stroke-width="1.08" stroke-linecap="round"/>
<line x1="173.88" y1="190.77" x2="173.88" y2="208.77" stroke="rgb(17, 17, 17)" stroke-width="1.08" stroke-linecap="round"/>
<line x1="173.88" y1="208.77" x2="158.30" y2="217.77" stroke="rgb(17, 17, 17)" stroke-width="1.08" stroke-linecap="round"/>
<line x1="173.88" y1="208.77" x2="189.47" y2="217.77" stroke="rgb(17, 17, 17)" stroke-width="1.08" stroke-linecap="round"/>
<line x1="189.47" y1="217.77" x2="189.47" y2="235.77" stroke="rgb(17, 17, 17)" stroke-width="1.08" stroke-linecap="round"/>
<line x1="189.47" y1="235.77" x2="173.88" y2="244.77" stroke="rgb(17, 17, 17)" stroke-width="1.08" stroke-linecap="round"/>
<line x1="189.47" y1="235.77" x2="205.06" y2="244.77" stroke="rgb(17, 17, 17)" stroke-width="1.08" stroke-linecap="round"/>
<line x1="205.06" y1="244.77" x2="205.06" y2="262.77" stroke="rgb(17, 17, 17)" stroke-width="1.08" stroke-linecap="round"/>
<line x1="205.06" y1="262.77" x2="189.47" y2="271.77" stroke="rgb(17, 17, 17)" stroke-width="1.08" stroke-linecap="round"/>
<line x1="236.24" y1="244.77" x2="236.24" y2="262.77" stroke="rgb(17, 17, 17)" stroke-width="1.08" stroke-linecap="round"/>
<line x1="236.24" y1="262.77" x2="220.65" y2="271.77" stroke="rgb(17, 17, 17)" stroke-width="1.08" stroke-linecap="round"/>
<line x1="251.83" y1="235.77" x2="267.42" y2="244.77" stroke="rgb(17, 17, 17)" stroke-width="1.08" stroke-linecap="round"/>
<line x1="267.42" y1="244.77" x2="267.42" y2="262.77" stroke="rgb(17, 17, 17)" stroke-width="1.08" stroke-linecap="round"/>
<line x1="267.42" y1="262.77" x2="251.83" y2="271.77" stroke="rgb(17, 17, 17)" stroke-width="1.08" stroke-linecap="round"/>
<line x1="267.42" y1="208.77" x2="283.00" y2="217.77" stroke="rgb(17, 17, 17)" stroke-width="1.08" stroke-linecap="round"/>
<line x1="283.00" y1="217.77" x2="283.00" y2="235.77" stroke="rgb(17, 17, 17)" stroke-width="1.08" stroke-linecap="round"/>
<line x1="283.00" y1="235.77" x2="267.42" y2="244.77" stroke="rgb(17, 17, 17)" stroke-width="1.08" stroke-linecap="round"/>
<line x1="314.18" y1="181.77" x2="329.77" y2="190.77" stroke="rgb(17, 17, 17)" stroke-width="1.08" stroke-linecap="round"/>
<line x1="329.77" y1="190.77" x2="329.77" y2="208.77" stroke="rgb(17, 17, 17)" stroke-width="1.08" stroke-linecap="round"/>
<line x1="329.77" y1="208.77" x2="314.18" y2="217.77" stroke="rgb(17, 17, 17)" stroke-width="1.08" stroke-linecap="round"/>
<line x1="298.59" y1="154.77" x2="314.18" y2="163.77" stroke="rgb(17, 17, 17)" stroke-width="1.08" stroke-linecap="round"/>
<line x1="314.18" y1="163.77" x2="314.18" y2="181.77" stroke="rgb(17, 17, 17)" stroke-width="1.08" stroke-linecap="round"/>
<line x1="314.18" y1="181.77" x2="298.59" y2="190.77" stroke="rgb(17, 17, 17)" stroke-width="1.08" stroke-linecap="round"/>
<line x1="298.59" y1="136.77" x2="298.59" y2="154.77" stroke="rgb(17, 17, 17)" stroke-width="1.08" stroke-linecap="round"/>
<line x1="236.24" y1="100.77" x2="251.83" y2="109.77" stroke="rgb(17, 17, 17)" stroke-width="1.08" stroke-linecap="round"/>
<line x1="251.83" y1="127.77" x2="236.24" y2="136.77" stroke="rgb(17, 17, 17)" stroke-width="1.08" stroke-linecap="round"/>
<line x1="205.06" y1="100.77" x2="220.65" y2="109.77" stroke="rgb(17, 17, 17)" stroke-width="1.08" stroke-linecap="round"/>
<line x1="189.47" y1="127.77" x2="173.88" y2="136.77" stroke="rgb(17, 17, 17)" stroke-width="1.08" stroke-linecap="round"/>
<line x1="173.88" y1="136.77" x2="173.88" y2="154.77" stroke="rgb(17, 17, 17)" stroke-width="1.08" stroke-linecap="round"/>
<line x1="173.88" y1="154.77" x2="158.30" y2="163.77" stroke="rgb(17, 17, 17)" stroke-width="1.08" stroke-linecap="round"/>
<line x1="142.71" y1="154.77" x2="158.30" y2="163.77" stroke="rgb(17, 17, 17)" stroke-width="1.08" stroke-linecap="round"/>
<line x1="158.30" y1="163.77" x2="158.30" y2="181.77" stroke="rgb(17, 17, 17)" stroke-width="1.08" stroke-linecap="round"/>
<line x1="158.30" y1="181.77" x2="142.71" y2="190.77" stroke="rgb(17, 17, 17)" stroke-width="1.08" stroke-linecap="round"/>
<line x1="127.12" y1="181.77" x2="142.71" y2="190.77" stroke="rgb(17, 17, 17)" stroke-width="1.08" stroke-linecap="round"/>
<line x1="142.71" y1="190.77" x2="142.71" y2="208.77" stroke="rgb(17, 17, 17)" stroke-width="1.08" stroke-linecap="round"/>
<line x1="142.71" y1="208.77" x2="127.12" y2="217.77" stroke="rgb(17, 17, 17)" stroke-width="1.08" stroke-linecap="round"/>
<line x1="142.71" y1="208.77" x2="158.30" y2="217.77" stroke="rgb(17, 17, 17)" stroke-width="1.08" stroke-linecap="round"/>
<line x1="158.30" y1="217.77" x2="158.30" y2="235.77" stroke="rgb(17, 17, 17)" stroke-width="1.08" stroke-linecap="round"/>
<line x1="158.30" y1="235.77" x2="142.71" y2="244.77" stroke="rgb(17, 17, 17)" stroke-width="1.08" stroke-linecap="round"/>
<line x1="158.30" y1="235.77" x2="173.88" y2="244.77" stroke="rgb(17, 17, 17)" stroke-width="1.08" stroke-linecap="round"/>
<line x1="173.88" y1="244.77" x2="173.88" y2="262.77" stroke="rgb(17, 17, 17)" stroke-width="1.08" stroke-linecap="round"/>
<line x1="173.88" y1="262.77" x2="158.30" y2="271.77" stroke="rgb(17, 17, 17)" stroke-width="1.08" stroke-linecap="round"/>
<line x1="173.88" y1="262.77" x2="189.47" y2="271.77" stroke="rgb(17, 17, 17)" stroke-width="1.08" stroke-linecap="round"/>
<line x1="189.47" y1="271.77" x2="189.47" y2="289.77" stroke="rgb(17, 17, 17)" stroke-width="1.08" stroke-linecap="round"/>
<line x1="189.47" y1="289.77" x2="173.88" y2="298.77" stroke="rgb(17, 17, 17)" stroke-width="1.08" stroke-linecap="round"/>
<line x1="205.06" y1="262.77" x2="220.65" y2="271.77" stroke="rgb(17, 17, 17)" stroke-width="1.08" stroke-linecap="round"/>
<line x1="220.65" y1="271.77" x2="220.65" y2="289.77" stroke="rgb(17, 17, 17)" stroke-width="1.08" stroke-linecap="round"/>
<line x1="220.65" y1="289.77" x2="205.06" y2="298.77" stroke="rgb(17, 17, 17)" stroke-width="1.08" stroke-linecap="round"/>
<line x1="236.24" y1="262.77" x2="251.83" y2="271.77" stroke="rgb(17, 17, 17)" stroke-width="1.08" stroke-linecap="round"/>
<line x1="251.83" y1="271.77" x2="251.83" y2="289.77" stroke="rgb(17, 17, 17)" stroke-width="1.08" stroke-linecap="round"/>
<line x1="251.83" y1="289.77" x2="236.24" y2="298.77" stroke="rgb(17, 17, 17)" stroke-width="1.08" stroke-linecap="round"/>
<line x1="267.42" y1="262.77" x2="283.00" y2="271.77" stroke="rgb(17, 17, 17)" stroke-width="1.08" stroke-linecap="round"/>
<line x1="283.00" y1="271.77" x2="283.00" y2="289.77" stroke="rgb(17, 17, 17)" stroke-width="1.08" stroke-linecap="round"/>
<line x1="283.00" y1="235.77" x2="298.59" y2="244.77" stroke="rgb(17, 17, 17)" stroke-width="1.08" stroke-linecap="round"/>
<line x1="298.59" y1="244.77" x2="298.59" y2="262.77" stroke="rgb(17, 17, 17)" stroke-width="1.08" stroke-linecap="round"/>
<line x1="298.59" y1="262.77" x2="283.00" y2="271.77" stroke="rgb(17, 17, 17)" stroke-width="1.08" stroke-linecap="round"/>
<line x1="298.59" y1="208.77" x2="314.18" y2="217.77" stroke="rgb(17, 17, 17)" stroke-width="1.08" stroke-linecap="round"/>
<line x1="314.18" y1="217.77" x2="314.18" y2="235.77" stroke="rgb(17, 17, 17)" stroke-width="1.08" stroke-linecap="round"/>
<line x1="314.18" y1="235.77" x2="298.59" y2="244.77" stroke="rgb(17, 17, 17)" stroke-width="1.08" stroke-linecap="round"/>
<line x1="345.36" y1="181.77" x2="360.95" y2="190.77" stroke="rgb(17, 17, 17)" stroke-width="1.08" stroke-linecap="round"/>
<line x1="360.95" y1="190.77" x2="360.95" y2="208.77" stroke="rgb(17, 17, 17)" stroke-width="1.08" stroke-linecap="round"/>
<line x1="360.95" y1="208.77" x2="345.36" y2="217.77" stroke="rgb(17, 17, 17)" stroke-width="1.08" stroke-linecap="round"/>
<line x1="329.77" y1="154.77" x2="345.36" y2="163.77" stroke="rgb(17, 17, 17)" stroke-width="1.08" stroke-linecap="round"/>
<line x1="345.36" y1="163.77" x2="345.36" y2="181.77" stroke="rgb(17, 17, 17)" stroke-width="1.08" stroke-linecap="round"/>
<line x1="345.36" y1="181.77" x2="329.77" y2="190.77" stroke="rgb(17, 17, 17)" stroke-width="1.08" stroke-linecap="round"/>
<line x1="314.18" y1="127.77" x2="329.77" y2="136.77" stroke="rgb(17, 17, 17)" stroke-width="1.08" stroke-linecap="round"/>
<line x1="329.77" y1="136.77" x2="329.77" y2="154.77" stroke="rgb(17, 17, 17)" stroke-width="1.08" stroke-linecap="round"/>
<line x1="329.77" y1="154.77" x2="314.18" y2="163.77" stroke="rgb(17, 17, 17)" stroke-width="1.08" stroke-linecap="round"/>
<line x1="298.59" y1="100.77" x2="314.18" y2="109.77" stroke="rgb(17, 17, 17)" stroke-width="1.08" stroke-linecap="round"/>
<line x1="314.18" y1="127.77" x2="298.59" y2="136.77" stroke="rgb(17, 17, 17)" stroke-width="1.08" stroke-linecap="round"/>
<line x1="283.00" y1="73.77" x2="298.59" y2="82.77" stroke="rgb(17, 17, 17)" stroke-width="1.08" stroke-linecap="round"/>
<line x1="298.59" y1="82.77" x2="298.59" y2="100.77" stroke="rgb(17, 17, 17)" stroke-width="1.08" stroke-linecap="round"/>
<line x1="251.83" y1="73.77" x2="267.42" y2="82.77" stroke="rgb(17, 17, 17)" stroke-width="1.08" stroke-linecap="round"/>
<line x1="267.42" y1="82.77" x2="267.42" y2="100.77" stroke="rgb(17, 17, 17)" stroke-width="1.08" stroke-linecap="round"/>
<line x1="267.42" y1="100.77" x2="251.83" y2="109.77" stroke="rgb(17, 17, 17)" stroke-width="1.08" stroke-linecap="round"/>
<line x1="220.65" y1="73.77" x2="236.24" y2="82.77" stroke="rgb(17, 17, 17)" stroke-width="1.08" stroke-linecap="round"/>
<line x1="236.24" y1="82.77" x2="236.24" y2="100.77" stroke="rgb(17, 17, 17)" stroke-width="1.08" stroke-linecap="round"/>
<line x1="236.24" y1="100.77" x2="220.65" y2="109.77" stroke="rgb(17, 17, 17)" stroke-width="1.08" stroke-linecap="round"/>
<line x1="189.47" y1="73.77" x2="205.06" y2="82.77" stroke="rgb(17, 17, 17)" stroke-width="1.08" stroke-linecap="round"/>
<line x1="205.06" y1="82.77" x2="205.06" y2="100.77" stroke="rgb(17, 17, 17)" stroke-width="1.08" stroke-linecap="round"/>
<line x1="158.30" y1="73.77" x2="173.88" y2="82.77" stroke="rgb(17, 17, 17)" stroke-width="1.08" stroke-linecap="round"/>
<line x1="173.88" y1="82.77" x2="173.88" y2="100.77" stroke="rgb(17, 17, 17)" stroke-width="1.08" stroke-linecap="round"/>
<line x1="173.88" y1="100.77" x2="158.30" y2="109.77" stroke="rgb(17, 17, 17)" stroke-width="1.08" stroke-linecap="round"/>
<line x1="142.71" y1="100.77" x2="158.30" y2="109.77" stroke="rgb(17, 17, 17)" stroke-width="1.08" stroke-linecap="round"/>
<line x1="158.30" y1="109.77" x2="158.30" y2="127.77" stroke="rgb(17, 17, 17)" stroke-width="1.08" stroke-linecap="round"/>
<line x1="158.30" y1="127.77" x2="142.71" y2="136.77" stroke="rgb(17, 17, 17)" stroke-width="1.08" stroke-linecap="round"/>
<line x1="127.12" y1="127.77" x2="142.71" y2="136.77" stroke="rgb(17, 17, 17)" stroke-width="1.08" stroke-linecap="round"/>
<line x1="142.71" y1="154.77" x2="127.12" y2="163.77" stroke="rgb(17, 17, 17)" stroke-width="1.08" stroke-linecap="round"/>
<line x1="111.53" y1="154.77" x2="127.12" y2="163.77" stroke="rgb(17, 17, 17)" stroke-width="1.08" stroke-linecap="round"/>
<line x1="127.12" y1="163.77" x2="127.12" y2="181.77" stroke="rgb(17, 17, 17)" stroke-width="1.08" stroke-linecap="round"/>
<line x1="127.12" y1="181.77" x2="111.53" y2="190.77" stroke="rgb(17, 17, 17)" stroke-width="1.08" stroke-linecap="round"/>
<line x1="95.94" y1="181.77" x2="111.53" y2="190.77" stroke="rgb(17, 17, 17)" stroke-width="1.08" stroke-linecap="round"/>
<line x1="111.53" y1="190.77" x2="111.53" y2="208.77" stroke="rgb(17, 17, 17)" stroke-width="1.08" stroke-linecap="round"/>
<line x1="111.53" y1="208.77" x2="95.94" y2="217.77" stroke="rgb(17, 17, 17)" stroke-width="1.08" stroke-linecap="round"/>
<line x1="111.53" y1="208.77" x2="127.12" y2="217.77" stroke="rgb(17, 17, 17)" stroke-width="1.08" stroke-linecap="round"/>
<line x1="142.71" y1="244.77" x2="142.71" y2="262.77" stroke="rgb(17, 17, 17)" stroke-width="1.08" stroke-linecap="round"/>
<line x1="142.71" y1="262.77" x2="127.12" y2="271.77" stroke="rgb(17, 17, 17)" stroke-width="1.08" stroke-linecap="round"/>
<line x1="142.71" y1="262.77" x2="158.30" y2="271.77" stroke="rgb(17, 17, 17)" stroke-width="1.08" stroke-linecap="round"/>
<line x1="158.30" y1="271.77" x2="158.30" y2="289.77" stroke="rgb(17, 17, 17)" stroke-width="1.08" stroke-linecap="round"/>
<line x1="158.30" y1="289.77" x2="142.71" y2="298.77" stroke="rgb(17, 17, 17)" stroke-width="1.08" stroke-linecap="round"/>
<line x1="158.30" y1="289.77" x2="173.88" y2="298.77" stroke="rgb(17, 17, 17)" stroke-width="1.08" stroke-linecap="round"/>
<line x1="173.88" y1="298.77" x2="173.88" y2="316.77" stroke="rgb(17, 17, 17)" stroke-width="1.08" stroke-linecap="round"/>
<line x1="173.88" y1="316.77" x2="158.30" y2="325.77" stroke="rgb(17, 17, 17)" stroke-width="1.08" stroke-linecap="round"/>
<line x1="189.47" y1="289.77" x2="205.06" y2="298.77" stroke="rgb(17, 17, 17)" stroke-width="1.08" stroke-linecap="round"/>
<line x1="220.65" y1="289.77" x2="236.24" y2="298.77" stroke="rgb(17, 17, 17)" stroke-width="1.08" stroke-linecap="round"/>
<line x1="236.24" y1="316.77" x2="220.65" y2="325.77" stroke="rgb(17, 17, 17)" stroke-width="1.08" stroke-linecap="round"/>
<line x1="267.42" y1="316.77" x2="251.83" y2="325.77" stroke="rgb(17, 17, 17)" stroke-width="1.08" stroke-linecap="round"/>
<line x1="283.00" y1="289.77" x2="298.59" y2="298.77" stroke="rgb(17, 17, 17)" stroke-width="1.08" stroke-linecap="round"/>
<line x1="298.59" y1="316.77" x2="283.00" y2="325.77" stroke="rgb(17, 17, 17)" stroke-width="1.08" stroke-linecap="round"/>
<line x1="298.59" y1="262.77" x2="314.18" y2="271.77" stroke="rgb(17, 17, 17)" stroke-width="1.08" stroke-linecap="round"/>
<line x1="314.18" y1="271.77" x2="314.18" y2="289.77" stroke="rgb(17, 17, 17)" stroke-width="1.08" stroke-linecap="round"/>
<line x1="314.18" y1="289.77" x2="298.59" y2="298.77" stroke="rgb(17, 17, 17)" stroke-width="1.08" stroke-linecap="round"/>
<line x1="329.77" y1="244.77" x2="329.77" y2="262.77" stroke="rgb(17, 17, 17)" stroke-width="1.08" stroke-linecap="round"/>
<line x1="329.77" y1="262.77" x2="314.18" y2="271.77" stroke="rgb(17, 17, 17)" stroke-width="1.08" stroke-linecap="round"/>
<line x1="329.77" y1="208.77" x2="345.36" y2="217.77" stroke="rgb(17, 17, 17)" stroke-width="1.08" stroke-linecap="round"/>
<line x1="345.36" y1="235.77" x2="329.77" y2="244.77" stroke="rgb(17, 17, 17)" stroke-width="1.08" stroke-linecap="round"/>
<line x1="376.53" y1="181.77" x2="392.12" y2="190.77" stroke="rgb(17, 17, 17)" stroke-width="1.08" stroke-linecap="round"/>
<line x1="392.12" y1="190.77" x2="392.12" y2="208.77" stroke="rgb(17, 17, 17)" stroke-width="1.08" stroke-linecap="round"/>
<line x1="392.12" y1="208.77" x2="376.53" y2="217.77" stroke="rgb(17, 17, 17)" stroke-width="1.08" stroke-linecap="round"/>
<line x1="360.95" y1="154.77" x2="376.53" y2="163.77" stroke="rgb(17, 17, 17)" stroke-width="1.08" stroke-linecap="round"/>
<line x1="376.53" y1="163.77" x2="376.53" y2="181.77" stroke="rgb(17, 17, 17)" stroke-width="1.08" stroke-linecap="round"/>
<line x1="376.53" y1="181.77" x2="360.95" y2="190.77" stroke="rgb(17, 17, 17)" stroke-width="1.08" stroke-linecap="round"/>
<line x1="360.95" y1="154.77" x2="345.36" y2="163.77" stroke="rgb(17, 17, 17)" stroke-width="1.08" stroke-linecap="round"/>
<line x1="314.18" y1="73.77" x2="329.77" y2="82.77" stroke="rgb(17, 17, 17)" stroke-width="1.08" stroke-linecap="round"/>
<line x1="329.77" y1="82.77" x2="329.77" y2="100.77" stroke="rgb(17, 17, 17)" stroke-width="1.08" stroke-linecap="round"/>
<line x1="329.77" y1="100.77" x2="314.18" y2="109.77" stroke="rgb(17, 17, 17)" stroke-width="1.08" stroke-linecap="round"/>
<line x1="298.59" y1="46.77" x2="314.18" y2="55.77" stroke="rgb(17, 17, 17)" stroke-width="1.08" stroke-linecap="round"/>
<line x1="314.18" y1="55.77" x2="314.18" y2="73.77" stroke="rgb(17, 17, 17)" stroke-width="1.08" stroke-linecap="round"/>
<line x1="314.18" y1="73.77" x2="298.59" y2="82.77" stroke="rgb(17, 17, 17)" stroke-width="1.08" stroke-linecap="round"/>
<line x1="283.00" y1="55.77" x2="298.59" y2="46.77" stroke="rgb(17, 17, 17)" stroke-width="1.08" stroke-linecap="round"/>
<line x1="267.42" y1="46.77" x2="283.00" y2="55.77" stroke="rgb(17, 17, 17)" stroke-width="1.08" stroke-linecap="round"/>
<line x1="283.00" y1="55.77" x2="283.00" y2="73.77" stroke="rgb(17, 17, 17)" stroke-width="1.08" stroke-linecap="round"/>
<line x1="283.00" y1="73.77" x2="267.42" y2="82.77" stroke="rgb(17, 17, 17)" stroke-width="1.08" stroke-linecap="round"/>
<line x1="251.83" y1="55.77" x2="267.42" y2="46.77" stroke="rgb(17, 17, 17)" stroke-width="1.08" stroke-linecap="round"/>
<line x1="251.83" y1="55.77" x2="251.83" y2="73.77" stroke="rgb(17, 17, 17)" stroke-width="1.08" stroke-linecap="round"/>
<line x1="251.83" y1="73.77" x2="236.24" y2="82.77" stroke="rgb(17, 17, 17)" stroke-width="1.08" stroke-linecap="round"/>
<line x1="205.06" y1="46.77" x2="220.65" y2="55.77" stroke="rgb(17, 17, 17)" stroke-width="1.08" stroke-linecap="round"/>
<line x1="220.65" y1="55.77" x2="220.65" y2="73.77" stroke="rgb(17, 17, 17)" stroke-width="1.08" stroke-linecap="round"/>
<line x1="220.65" y1="73.77" x2="205.06" y2="82.77" stroke="rgb(17, 17, 17)" stroke-width="1.08" stroke-linecap="round"/>
<line x1="189.47" y1="55.77" x2="205.06" y2="46.77" stroke="rgb(17, 17, 17)" stroke-width="1.08" stroke-linecap="round"/>
<line x1="189.47" y1="55.77" x2="189.47" y2="73.77" stroke="rgb(17, 17, 17)" stroke-width="1.08" stroke-linecap="round"/>
<line x1="142.71" y1="46.77" x2="158.30" y2="55.77" stroke="rgb(17, 17, 17)" stroke-width="1.08" stroke-linecap="round"/>
<line x1="158.30" y1="55.77" x2="158.30" y2="73.77" stroke="rgb(17, 17, 17)" stroke-width="1.08" stroke-linecap="round"/>
<line x1="158.30" y1="73.77" x2="142.71" y2="82.77" stroke="rgb(17, 17, 17)" stroke-width="1.08" stroke-linecap="round"/>
<line x1="127.12" y1="73.77" x2="127.12" y2="55.77" stroke="rgb(17, 17, 17)" stroke-width="1.08" stroke-linecap="round"/>
<line x1="127.12" y1="55.77" x2="142.71" y2="46.77" stroke="rgb(17, 17, 17)" stroke-width="1.08" stroke-linecap="round"/>
<line x1="127.12" y1="73.77" x2="142.71" y2="82.77" stroke="rgb(17, 17, 17)" stroke-width="1.08" stroke-linecap="round"/>
<line x1="142.71" y1="82.77" x2="142.71" y2="100.77" stroke="rgb(17, 17, 17)" stroke-width="1.08" stroke-linecap="round"/>
<line x1="142.71" y1="100.77" x2="127.12" y2="109.77" stroke="rgb(17, 17, 17)" stroke-width="1.08" stroke-linecap="round"/>
<line x1="111.53" y1="100.77" x2="127.12" y2="109.77" stroke="rgb(17, 17, 17)" stroke-width="1.08" stroke-linecap="round"/>
<line x1="127.12" y1="109.77" x2="127.12" y2="127.77" stroke="rgb(17, 17, 17)" stroke-width="1.08" stroke-linecap="round"/>
<line x1="127.12" y1="127.77" x2="111.53" y2="136.77" stroke="rgb(17, 17, 17)" stroke-width="1.08" stroke-linecap="round"/>
<line x1="95.94" y1="127.77" x2="95.94" y2="109.77" stroke="rgb(17, 17, 17)" stroke-width="1.08" stroke-linecap="round"/>
<line x1="95.94" y1="109.77" x2="111.53" y2="100.77" stroke="rgb(17, 17, 17)" stroke-width="1.08" stroke-linecap="round"/>
<line x1="95.94" y1="127.77" x2="111.53" y2="136.77" stroke="rgb(17, 17, 17)" stroke-width="1.08" stroke-linecap="round"/>
<line x1="111.53" y1="136.77" x2="111.53" y2="154.77" stroke="rgb(17, 17, 17)" stroke-width="1.08" stroke-linecap="round"/>
<line x1="111.53" y1="154.77" x2="95.94" y2="163.77" stroke="rgb(17, 17, 17)" stroke-width="1.08" stroke-linecap="round"/>
<line x1="80.35" y1="154.77" x2="80.35" y2="136.77" stroke="rgb(17, 17, 17)" stroke-width="1.08" stroke-linecap="round"/>
<line x1="80.35" y1="136.77" x2="95.94" y2="127.77" stroke="rgb(17, 17, 17)" stroke-width="1.08" stroke-linecap="round"/>
<line x1="80.35" y1="154.77" x2="95.94" y2="163.77" stroke="rgb(17, 17, 17)" stroke-width="1.08" stroke-linecap="round"/>
<line x1="95.94" y1="163.77" x2="95.94" y2="181.77" stroke="rgb(17, 17, 17)" stroke-width="1.08" stroke-linecap="round"/>
<line x1="95.94" y1="181.77" x2="80.35" y2="190.77" stroke="rgb(17, 17, 17)" stroke-width="1.08" stroke-linecap="round"/>
<line x1="64.77" y1="181.77" x2="80.35" y2="190.77" stroke="rgb(17, 17, 17)" stroke-width="1.08" stroke-linecap="round"/>
<line x1="80.35" y1="190.77" x2="80.35" y2="208.77" stroke="rgb(17, 17, 17)" stroke-width="1.08" stroke-linecap="round"/>
<line x1="80.35" y1="208.77" x2="64.77" y2="217.77" stroke="rgb(17, 17, 17)" stroke-width="1.08" stroke-linecap="round"/>
<line x1="64.77" y1="217.77" x2="49.18" y2="208.77" stroke="rgb(17, 17, 17)" stroke-width="1.08" stroke-linecap="round"/>
<line x1="49.18" y1="208.77" x2="49.18" y2="190.77" stroke="rgb(17, 17, 17)" stroke-width="1.08" stroke-linecap="round"/>
<line x1="49.18" y1="190.77" x2="64.77" y2="181.77" stroke="rgb(17, 17, 17)" stroke-width="1.08" stroke-linecap="round"/>
<line x1="80.35" y1="208.77" x2="95.94" y2="217.77" stroke="rgb(17, 17, 17)" stroke-width="1.08" stroke-linecap="round"/>
<line x1="95.94" y1="217.77" x2="95.94" y2="235.77" stroke="rgb(17, 17, 17)" stroke-width="1.08" stroke-linecap="round"/>
<line x1="95.94" y1="235.77" x2="80.35" y2="244.77" stroke="rgb(17, 17, 17)" stroke-width="1.08" stroke-linecap="round"/>
<line x1="80.35" y1="244.77" x2="64.77" y2="235.77" stroke="rgb(17, 17, 17)" stroke-width="1.08" stroke-linecap="round"/>
<line x1="64.77" y1="235.77" x2="64.77" y2="217.77" stroke="rgb(17, 17, 17)" stroke-width="1.08" stroke-linecap="round"/>
<line x1="111.53" y1="262.77" x2="95.94" y2="271.77" stroke="rgb(17, 17, 17)" stroke-width="1.08" stroke-linecap="round"/>
<line x1="111.53" y1="262.77" x2="127.12" y2="271.77" stroke="rgb(17, 17, 17)" stroke-width="1.08" stroke-linecap="round"/>
<line x1="127.12" y1="271.77" x2="127.12" y2="289.77" stroke="rgb(17, 17, 17)" stroke-width="1.08" stroke-linecap="round"/>
<line x1="127.12" y1="289.77" x2="111.53" y2="298.77" stroke="rgb(17, 17, 17)" stroke-width="1.08" stroke-linecap="round"/>
<line x1="111.53" y1="298.77" x2="95.94" y2="289.77" stroke="rgb(17, 17, 17)" stroke-width="1.08" stroke-linecap="round"/>
<line x1="95.94" y1="289.77" x2="95.94" y2="271.77" stroke="rgb(17, 17, 17)" stroke-width="1.08" stroke-linecap="round"/>
<line x1="127.12" y1="289.77" x2="142.71" y2="298.77" stroke="rgb(17, 17, 17)" stroke-width="1.08" stroke-linecap="round"/>
<line x1="142.71" y1="298.77" x2="142.71" y2="316.77" stroke="rgb(17, 17, 17)" stroke-width="1.08" stroke-linecap="round"/>
<line x1="142.71" y1="316.77" x2="158.30" y2="325.77" stroke="rgb(17, 17, 17)" stroke-width="1.08" stroke-linecap="round"/>
<line x1="158.30" y1="325.77" x2="158.30" y2="343.77" stroke="rgb(17, 17, 17)" stroke-width="1.08" stroke-linecap="round"/>
<line x1="173.88" y1="316.77" x2="189.47" y2="325.77" stroke="rgb(17, 17, 17)" stroke-width="1.08" stroke-linecap="round"/>
<line x1="189.47" y1="325.77" x2="189.47" y2="343.77" stroke="rgb(17, 17, 17)" stroke-width="1.08" stroke-linecap="round"/>
<line x1="189.47" y1="343.77" x2="173.88" y2="352.77" stroke="rgb(17, 17, 17)" stroke-width="1.08" stroke-linecap="round"/>
<line x1="173.88" y1="352.77" x2="158.30" y2="343.77" stroke="rgb(17, 17, 17)" stroke-width="1.08" stroke-linecap="round"/>
<line x1="220.65" y1="325.77" x2="220.65" y2="343.77" stroke="rgb(17, 17, 17)" stroke-width="1.08" stroke-linecap="round"/>
<line x1="236.24" y1="316.77" x2="251.83" y2="325.77" stroke="rgb(17, 17, 17)" stroke-width="1.08" stroke-linecap="round"/>
<line x1="251.83" y1="325.77" x2="251.83" y2="343.77" stroke="rgb(17, 17, 17)" stroke-width="1.08" stroke-linecap="round"/>
<line x1="251.83" y1="343.77" x2="236.24" y2="352.77" stroke="rgb(17, 17, 17)" stroke-width="1.08" stroke-linecap="round"/>
<line x1="236.24" y1="352.77" x2="220.65" y2="343.77" stroke="rgb(17, 17, 17)" stroke-width="1.08" stroke-linecap="round"/>
<line x1="267.42" y1="316.77" x2="283.00" y2="325.77" stroke="rgb(17, 17, 17)" stroke-width="1.08" stroke-linecap="round"/>
<line x1="283.00" y1="325.77" x2="283.00" y2="343.77" stroke="rgb(17, 17, 17)" stroke-width="1.08" stroke-linecap="round"/>
<line x1="283.00" y1="343.77" x2="267.42" y2="352.77" stroke="rgb(17, 17, 17)" stroke-width="1.08" stroke-linecap="round"/>
<line x1="267.42" y1="352.77" x2="251.83" y2="343.77" stroke="rgb(17, 17, 17)" stroke-width="1.08" stroke-linecap="round"/>
<line x1="298.59" y1="316.77" x2="314.18" y2="325.77" stroke="rgb(17, 17, 17)" stroke-width="1.08" stroke-linecap="round"/>
<line x1="314.18" y1="325.77" x2="314.18" y2="343.77" stroke="rgb(17, 17, 17)" stroke-width="1.08" stroke-linecap="round"/>
<line x1="314.18" y1="343.77" x2="298.59" y2="352.77" stroke="rgb(17, 17, 17)" stroke-width="1.08" stroke-linecap="round"/>
<line x1="298.59" y1="352.77" x2="283.00" y2="343.77" stroke="rgb(17, 17, 17)" stroke-width="1.08" stroke-linecap="round"/>
<line x1="314.18" y1="289.77" x2="329.77" y2="298.77" stroke="rgb(17, 17, 17)" stroke-width="1.08" stroke-linecap="round"/>
<line x1="329.77" y1="262.77" x2="345.36" y2="271.77" stroke="rgb(17, 17, 17)" stroke-width="1.08" stroke-linecap="round"/>
<line x1="345.36" y1="271.77" x2="345.36" y2="289.77" stroke="rgb(17, 17, 17)" stroke-width="1.08" stroke-linecap="round"/>
<line x1="345.36" y1="289.77" x2="329.77" y2="298.77" stroke="rgb(17, 17, 17)" stroke-width="1.08" stroke-linecap="round"/>
<line x1="345.36" y1="235.77" x2="360.95" y2="244.77" stroke="rgb(17, 17, 17)" stroke-width="1.08" stroke-linecap="round"/>
<line x1="360.95" y1="244.77" x2="360.95" y2="262.77" stroke="rgb(17, 17, 17)" stroke-width="1.08" stroke-linecap="round"/>
<line x1="360.95" y1="262.77" x2="345.36" y2="271.77" stroke="rgb(17, 17, 17)" stroke-width="1.08" stroke-linecap="round"/>
<line x1="360.95" y1="208.77" x2="376.53" y2="217.77" stroke="rgb(17, 17, 17)" stroke-width="1.08" stroke-linecap="round"/>
</svg>